<mxfile host="Electron" agent="Mozilla/5.0 (Windows NT 10.0; Win64; x64) AppleWebKit/537.36 (KHTML, like Gecko) draw.io/26.0.16 Chrome/132.0.6834.196 Electron/34.2.0 Safari/537.36" version="26.0.16">
  <diagram name="第 1 页" id="Cy5_WnsKInxFiqPtky8y">
    <mxGraphModel dx="1615" dy="977" grid="1" gridSize="10" guides="1" tooltips="1" connect="1" arrows="1" fold="1" page="1" pageScale="1" pageWidth="827" pageHeight="1169" math="0" shadow="0">
      <root>
        <mxCell id="0" />
        <mxCell id="1" parent="0" />
        <mxCell id="7GetA9RN6Dq26HbqB_Ch-4" style="edgeStyle=orthogonalEdgeStyle;rounded=0;orthogonalLoop=1;jettySize=auto;html=1;exitX=0;exitY=0.5;exitDx=0;exitDy=0;entryX=0.5;entryY=0;entryDx=0;entryDy=0;" edge="1" parent="1" source="7GetA9RN6Dq26HbqB_Ch-1" target="7GetA9RN6Dq26HbqB_Ch-2">
          <mxGeometry relative="1" as="geometry" />
        </mxCell>
        <mxCell id="7GetA9RN6Dq26HbqB_Ch-5" style="edgeStyle=orthogonalEdgeStyle;rounded=0;orthogonalLoop=1;jettySize=auto;html=1;exitX=1;exitY=0.5;exitDx=0;exitDy=0;entryX=0.5;entryY=0;entryDx=0;entryDy=0;" edge="1" parent="1" source="7GetA9RN6Dq26HbqB_Ch-1" target="7GetA9RN6Dq26HbqB_Ch-3">
          <mxGeometry relative="1" as="geometry" />
        </mxCell>
        <mxCell id="7GetA9RN6Dq26HbqB_Ch-1" value="通信栈选择" style="rhombus;whiteSpace=wrap;html=1;" vertex="1" parent="1">
          <mxGeometry x="380" y="320" width="120" height="60" as="geometry" />
        </mxCell>
        <mxCell id="7GetA9RN6Dq26HbqB_Ch-26" style="edgeStyle=orthogonalEdgeStyle;rounded=0;orthogonalLoop=1;jettySize=auto;html=1;exitX=0;exitY=0;exitDx=0;exitDy=0;entryX=0.5;entryY=0;entryDx=0;entryDy=0;dashed=1;" edge="1" parent="1" source="7GetA9RN6Dq26HbqB_Ch-2" target="7GetA9RN6Dq26HbqB_Ch-20">
          <mxGeometry relative="1" as="geometry">
            <Array as="points">
              <mxPoint x="280" y="280" />
              <mxPoint x="180" y="280" />
            </Array>
          </mxGeometry>
        </mxCell>
        <mxCell id="7GetA9RN6Dq26HbqB_Ch-32" style="edgeStyle=orthogonalEdgeStyle;rounded=0;orthogonalLoop=1;jettySize=auto;html=1;exitX=0.5;exitY=1;exitDx=0;exitDy=0;" edge="1" parent="1" source="7GetA9RN6Dq26HbqB_Ch-2">
          <mxGeometry relative="1" as="geometry">
            <mxPoint x="440" y="490" as="targetPoint" />
          </mxGeometry>
        </mxCell>
        <mxCell id="7GetA9RN6Dq26HbqB_Ch-2" value="init_udp_comm" style="rounded=0;whiteSpace=wrap;html=1;" vertex="1" parent="1">
          <mxGeometry x="280" y="400" width="100" height="40" as="geometry" />
        </mxCell>
        <mxCell id="7GetA9RN6Dq26HbqB_Ch-33" style="edgeStyle=orthogonalEdgeStyle;rounded=0;orthogonalLoop=1;jettySize=auto;html=1;exitX=0.5;exitY=1;exitDx=0;exitDy=0;" edge="1" parent="1" source="7GetA9RN6Dq26HbqB_Ch-3">
          <mxGeometry relative="1" as="geometry">
            <mxPoint x="440" y="490" as="targetPoint" />
          </mxGeometry>
        </mxCell>
        <mxCell id="7GetA9RN6Dq26HbqB_Ch-3" value="init_rdma_comm" style="rounded=0;whiteSpace=wrap;html=1;" vertex="1" parent="1">
          <mxGeometry x="500" y="400" width="100" height="40" as="geometry" />
        </mxCell>
        <mxCell id="7GetA9RN6Dq26HbqB_Ch-6" value="udp" style="text;html=1;align=center;verticalAlign=middle;resizable=0;points=[];autosize=1;strokeColor=none;fillColor=none;" vertex="1" parent="1">
          <mxGeometry x="340" y="318" width="40" height="30" as="geometry" />
        </mxCell>
        <mxCell id="7GetA9RN6Dq26HbqB_Ch-7" value="rdma" style="text;html=1;align=center;verticalAlign=middle;resizable=0;points=[];autosize=1;strokeColor=none;fillColor=none;" vertex="1" parent="1">
          <mxGeometry x="495" y="318" width="50" height="30" as="geometry" />
        </mxCell>
        <mxCell id="7GetA9RN6Dq26HbqB_Ch-8" value="" style="endArrow=classic;html=1;rounded=0;entryX=0.5;entryY=0;entryDx=0;entryDy=0;" edge="1" parent="1" target="7GetA9RN6Dq26HbqB_Ch-1">
          <mxGeometry width="50" height="50" relative="1" as="geometry">
            <mxPoint x="440" y="300" as="sourcePoint" />
            <mxPoint x="530" y="260" as="targetPoint" />
          </mxGeometry>
        </mxCell>
        <mxCell id="7GetA9RN6Dq26HbqB_Ch-10" value="init_rdma_context" style="rounded=0;whiteSpace=wrap;html=1;" vertex="1" parent="1">
          <mxGeometry x="650" y="310" width="100" height="40" as="geometry" />
        </mxCell>
        <mxCell id="7GetA9RN6Dq26HbqB_Ch-18" style="edgeStyle=orthogonalEdgeStyle;rounded=0;orthogonalLoop=1;jettySize=auto;html=1;exitX=0.5;exitY=1;exitDx=0;exitDy=0;entryX=0.5;entryY=0;entryDx=0;entryDy=0;" edge="1" parent="1" source="7GetA9RN6Dq26HbqB_Ch-11" target="7GetA9RN6Dq26HbqB_Ch-12">
          <mxGeometry relative="1" as="geometry" />
        </mxCell>
        <mxCell id="7GetA9RN6Dq26HbqB_Ch-11" value="sync_connection" style="rounded=0;whiteSpace=wrap;html=1;" vertex="1" parent="1">
          <mxGeometry x="650" y="370" width="100" height="40" as="geometry" />
        </mxCell>
        <mxCell id="7GetA9RN6Dq26HbqB_Ch-19" style="edgeStyle=orthogonalEdgeStyle;rounded=0;orthogonalLoop=1;jettySize=auto;html=1;exitX=0.5;exitY=1;exitDx=0;exitDy=0;entryX=0.5;entryY=0;entryDx=0;entryDy=0;" edge="1" parent="1" source="7GetA9RN6Dq26HbqB_Ch-12" target="7GetA9RN6Dq26HbqB_Ch-13">
          <mxGeometry relative="1" as="geometry" />
        </mxCell>
        <mxCell id="7GetA9RN6Dq26HbqB_Ch-12" value="init_rdma_resource" style="rounded=0;whiteSpace=wrap;html=1;" vertex="1" parent="1">
          <mxGeometry x="650" y="430" width="100" height="40" as="geometry" />
        </mxCell>
        <mxCell id="7GetA9RN6Dq26HbqB_Ch-13" value="create threads" style="rounded=0;whiteSpace=wrap;html=1;" vertex="1" parent="1">
          <mxGeometry x="650" y="490" width="100" height="40" as="geometry" />
        </mxCell>
        <mxCell id="7GetA9RN6Dq26HbqB_Ch-15" value="" style="endArrow=classic;html=1;rounded=0;entryX=0.5;entryY=0;entryDx=0;entryDy=0;dashed=1;" edge="1" parent="1" target="7GetA9RN6Dq26HbqB_Ch-10">
          <mxGeometry width="50" height="50" relative="1" as="geometry">
            <mxPoint x="600" y="400" as="sourcePoint" />
            <mxPoint x="650" y="350" as="targetPoint" />
            <Array as="points">
              <mxPoint x="600" y="280" />
              <mxPoint x="700" y="280" />
            </Array>
          </mxGeometry>
        </mxCell>
        <mxCell id="7GetA9RN6Dq26HbqB_Ch-16" value="" style="endArrow=none;html=1;rounded=0;exitX=1;exitY=1;exitDx=0;exitDy=0;dashed=1;startArrow=classic;startFill=1;entryX=0.5;entryY=1;entryDx=0;entryDy=0;" edge="1" parent="1" source="7GetA9RN6Dq26HbqB_Ch-3" target="7GetA9RN6Dq26HbqB_Ch-13">
          <mxGeometry width="50" height="50" relative="1" as="geometry">
            <mxPoint x="640" y="640" as="sourcePoint" />
            <mxPoint x="650" y="530" as="targetPoint" />
            <Array as="points">
              <mxPoint x="600" y="560" />
              <mxPoint x="700" y="560" />
            </Array>
          </mxGeometry>
        </mxCell>
        <mxCell id="7GetA9RN6Dq26HbqB_Ch-17" value="" style="endArrow=classic;html=1;rounded=0;exitX=0.5;exitY=1;exitDx=0;exitDy=0;" edge="1" parent="1" source="7GetA9RN6Dq26HbqB_Ch-10">
          <mxGeometry width="50" height="50" relative="1" as="geometry">
            <mxPoint x="650" y="630" as="sourcePoint" />
            <mxPoint x="700" y="370" as="targetPoint" />
          </mxGeometry>
        </mxCell>
        <mxCell id="7GetA9RN6Dq26HbqB_Ch-27" style="edgeStyle=orthogonalEdgeStyle;rounded=0;orthogonalLoop=1;jettySize=auto;html=1;exitX=0.5;exitY=1;exitDx=0;exitDy=0;entryX=0.5;entryY=0;entryDx=0;entryDy=0;" edge="1" parent="1" source="7GetA9RN6Dq26HbqB_Ch-20" target="7GetA9RN6Dq26HbqB_Ch-21">
          <mxGeometry relative="1" as="geometry" />
        </mxCell>
        <mxCell id="7GetA9RN6Dq26HbqB_Ch-20" value="init_msg_buffer" style="rounded=0;whiteSpace=wrap;html=1;" vertex="1" parent="1">
          <mxGeometry x="130" y="310" width="100" height="40" as="geometry" />
        </mxCell>
        <mxCell id="7GetA9RN6Dq26HbqB_Ch-28" style="edgeStyle=orthogonalEdgeStyle;rounded=0;orthogonalLoop=1;jettySize=auto;html=1;exitX=0.5;exitY=1;exitDx=0;exitDy=0;entryX=0.5;entryY=0;entryDx=0;entryDy=0;" edge="1" parent="1" source="7GetA9RN6Dq26HbqB_Ch-21" target="7GetA9RN6Dq26HbqB_Ch-22">
          <mxGeometry relative="1" as="geometry" />
        </mxCell>
        <mxCell id="7GetA9RN6Dq26HbqB_Ch-21" value="init_msg_queue" style="rounded=0;whiteSpace=wrap;html=1;" vertex="1" parent="1">
          <mxGeometry x="130" y="370" width="100" height="40" as="geometry" />
        </mxCell>
        <mxCell id="7GetA9RN6Dq26HbqB_Ch-29" style="edgeStyle=orthogonalEdgeStyle;rounded=0;orthogonalLoop=1;jettySize=auto;html=1;exitX=0.5;exitY=1;exitDx=0;exitDy=0;entryX=0.5;entryY=0;entryDx=0;entryDy=0;" edge="1" parent="1" source="7GetA9RN6Dq26HbqB_Ch-22" target="7GetA9RN6Dq26HbqB_Ch-23">
          <mxGeometry relative="1" as="geometry" />
        </mxCell>
        <mxCell id="7GetA9RN6Dq26HbqB_Ch-22" value="init_comm_manager" style="rounded=0;whiteSpace=wrap;html=1;" vertex="1" parent="1">
          <mxGeometry x="130" y="430" width="100" height="40" as="geometry" />
        </mxCell>
        <mxCell id="7GetA9RN6Dq26HbqB_Ch-30" style="edgeStyle=orthogonalEdgeStyle;rounded=0;orthogonalLoop=1;jettySize=auto;html=1;exitX=0.5;exitY=1;exitDx=0;exitDy=0;entryX=0;entryY=1;entryDx=0;entryDy=0;dashed=1;" edge="1" parent="1" source="7GetA9RN6Dq26HbqB_Ch-23" target="7GetA9RN6Dq26HbqB_Ch-2">
          <mxGeometry relative="1" as="geometry" />
        </mxCell>
        <mxCell id="7GetA9RN6Dq26HbqB_Ch-23" value="create threads" style="rounded=0;whiteSpace=wrap;html=1;" vertex="1" parent="1">
          <mxGeometry x="130" y="490" width="100" height="40" as="geometry" />
        </mxCell>
      </root>
    </mxGraphModel>
  </diagram>
</mxfile>
